# xmcd
# 
# Track frame offsets:
#     150
#     18496
#     33857
#     58884
#     83658
#     96335
#     115097
#     135076
#     148602
#     169703
#     191495
#     213409
#     227614
#     248423
#     265441
# 
# Disc length: 3815
# 
# Revision: 3
# Processed by: cddbd v1.5.2PL0 Copyright (c) Steve Scherf et al.
# Submitted via: fre:ac v1.1beta1pre3
# 
DISCID=c20ee50f
DTITLE=小娟 and 山谷里的居民 - 惦記 [無損錄製]
DYEAR=2011
DGENRE=Chinese Pop
TTITLE0=惦記這一些
TTITLE1=愛的路上千萬里
TTITLE2=再回首
TTITLE3=難道真的我能忘記你
TTITLE4=Gone The Rainbow 消逝的彩虹
TTITLE5=命中注定
TTITLE6=愛在深秋
TTITLE7=Blowing In The Wind 隨風而逝
TTITLE8=花祭
TTITLE9=綠島小夜曲 (合唱 男生黎強)
TTITLE10=我倆永隔一江水
TTITLE11=再愛我一次
TTITLE12=給愛
TTITLE13=阿彌陀佛在心間
TTITLE14=玻璃心
EXTD=
EXTT0=
EXTT1=
EXTT2=
EXTT3=
EXTT4=
EXTT5=
EXTT6=
EXTT7=
EXTT8=
EXTT9=
EXTT10=
EXTT11=
EXTT12=
EXTT13=
EXTT14=
PLAYORDER=
